<?xml version="1.0" standalone="no"?>
<!DOCTYPE svg PUBLIC "-//W3C//DTD SVG 20010904//EN"
 "http://www.w3.org/TR/2001/REC-SVG-20010904/DTD/svg10.dtd">
<svg version="1.0" xmlns="http://www.w3.org/2000/svg"
 width="330.000000pt" height="314.000000pt" viewBox="0 0 330.000000 314.000000"
 preserveAspectRatio="xMidYMid meet">

<g transform="translate(0.000000,314.000000) scale(0.100000,-0.100000)"
fill="#89b4fa" stroke="none">
<path d="M1449 3129 c-765 -53 -1387 -675 -1437 -1437 -20 -294 32 -561 155
-807 229 -456 645 -764 1148 -850 133 -22 367 -22 500 0 568 97 1032 486 1223
1026 127 361 110 798 -46 1146 l-18 42 152 153 c226 227 226 230 7 450 -81 82
-160 156 -175 164 -32 17 -91 18 -121 3 -12 -6 -75 -63 -139 -127 -99 -98
-115 -118 -105 -131 7 -9 -4 -4 -24 11 -300 224 -564 334 -849 353 -47 3 -103
7 -125 9 -22 1 -88 -1 -146 -5z m226 -539 c163 -19 309 -70 441 -156 32 -21
63 -37 67 -36 24 7 -40 -61 -315 -335 l-303 -302 -140 135 c-214 205 -225 205
-439 -5 -155 -152 -182 -194 -171 -264 6 -39 31 -66 323 -359 174 -175 331
-325 348 -333 37 -17 110 -20 151 -4 15 5 226 208 468 450 242 241 443 439
446 439 4 0 11 -26 17 -57 50 -265 -7 -539 -158 -764 -56 -82 -187 -213 -269
-269 -409 -275 -950 -224 -1297 124 -400 400 -400 1042 0 1442 162 163 375
267 597 293 105 12 133 12 234 1z"/>
</g>
</svg>
